<?xml version="1.0" standalone="no"?>
<!DOCTYPE svg PUBLIC "-//W3C//DTD SVG 20010904//EN"
 "http://www.w3.org/TR/2001/REC-SVG-20010904/DTD/svg10.dtd">
<svg version="1.0" xmlns="http://www.w3.org/2000/svg"
 width="96.000000pt" height="96.000000pt" viewBox="0 0 96.000000 96.000000"
 preserveAspectRatio="xMidYMid meet">

<g transform="translate(0.000000,96.000000) scale(0.100000,-0.100000)"
fill="#000000" stroke="none">
<path d="M384 889 c-11 -4 -33 -12 -51 -19 -17 -6 -34 -19 -37 -27 -6 -14 -4
-14 17 0 30 20 141 40 169 31 15 -4 19 -2 16 7 -5 15 -82 20 -114 8z"/>
<path d="M523 888 c2 -7 10 -13 18 -13 8 0 20 -4 27 -9 7 -4 16 -5 20 -1 9 9
-20 26 -35 20 -7 -2 -13 0 -13 5 0 6 -5 10 -11 10 -6 0 -9 -6 -6 -12z"/>
<path d="M607 867 c-2 -7 21 -27 52 -46 31 -18 62 -42 69 -52 7 -11 18 -17 23
-13 14 8 -14 38 -82 84 -37 25 -59 35 -62 27z"/>
<path d="M275 849 c-4 -6 -5 -12 -2 -15 2 -3 7 2 10 11 7 17 1 20 -8 4z"/>
<path d="M360 845 c-96 -32 -185 -124 -212 -220 -6 -22 -12 -66 -13 -98 -1
-31 -5 -60 -9 -64 -6 -7 -9 27 -8 85 1 20 -3 32 -11 32 -15 0 -17 -86 -3 -109
6 -10 5 -12 -2 -7 -7 4 -12 2 -12 -3 0 -6 7 -11 15 -11 14 0 14 -3 1 -22 -49
-79 -40 -154 23 -211 37 -33 119 -67 163 -67 22 0 22 -4 2 -35 -8 -13 -14 -34
-12 -47 3 -23 5 -23 153 -26 83 -1 160 0 173 3 30 7 28 35 -8 93 -16 27 -30
52 -30 55 0 4 18 16 40 27 111 57 186 164 192 278 2 49 12 53 33 12 20 -39 19
-78 -4 -123 -14 -28 -15 -35 -4 -26 26 23 54 89 55 134 1 50 -17 83 -62 117
-17 12 -39 40 -50 63 -27 55 -94 122 -155 152 -62 32 -186 41 -255 18z m175
-37 c19 -18 42 -50 50 -71 l16 -38 -33 -14 -33 -15 40 6 c31 5 37 4 29 -6 -8
-8 -29 -10 -68 -5 l-56 7 0 84 c0 50 4 84 10 84 6 0 26 -15 45 -32z m-89 -13
c-7 -20 -55 -19 -63 0 -8 23 4 30 23 14 14 -11 17 -10 27 6 12 22 23 5 13 -20z
m183 -6 l55 -32 -28 -24 c-16 -13 -32 -23 -37 -21 -17 6 -70 108 -57 108 7 0
38 -14 67 -31z m-289 -18 c0 -11 -4 -23 -10 -26 -6 -4 -10 5 -10 19 0 14 5 26
10 26 6 0 10 -9 10 -19z m-42 -13 c14 -14 16 -28 2 -28 -5 0 -14 9 -20 20 -12
22 -1 27 18 8z m92 2 c8 -5 11 -12 7 -16 -4 -4 -15 0 -24 9 -18 18 -8 23 17 7z
m334 -60 c14 -22 26 -42 26 -44 0 -3 -15 -3 -32 0 -18 2 -46 6 -63 7 -41 5
-43 30 -3 56 18 11 36 21 39 21 4 0 18 -18 33 -40z m-459 19 c12 -19 -5 -23
-22 -6 -16 16 -16 17 -1 17 9 0 20 -5 23 -11z m135 1 c0 -5 -10 -10 -22 -10
-19 0 -20 2 -8 10 19 13 30 13 30 0z m-140 -40 c0 -5 -12 -10 -27 -10 -22 0
-25 2 -13 10 20 13 40 13 40 0z m154 -6 c9 -22 -3 -32 -14 -14 -12 19 -12 30
-1 30 5 0 12 -7 15 -16z m-118 -9 c-21 -16 -32 -13 -21 4 3 6 14 11 23 11 15
-1 15 -2 -2 -15z m15 -48 c-8 -8 -11 -7 -11 4 0 20 13 34 18 19 3 -7 -1 -17
-7 -23z m59 23 c0 -5 -7 -10 -16 -10 -8 0 -12 5 -9 10 3 6 10 10 16 10 5 0 9
-4 9 -10z m-94 -47 c-11 -11 -19 6 -11 24 8 17 8 17 12 0 3 -10 2 -21 -1 -24z
m-42 11 c4 -10 1 -14 -6 -12 -15 5 -23 28 -10 28 5 0 13 -7 16 -16z m122 -9
c-21 -16 -32 -13 -21 4 3 6 14 11 23 11 15 -1 15 -2 -2 -15z m62 -13 c6 -18
-15 -14 -22 4 -4 10 -1 14 6 12 6 -2 14 -10 16 -16z m330 -3 c12 -5 22 -15 22
-24 0 -12 -13 -15 -65 -15 l-65 0 0 31 c0 31 0 31 43 24 23 -4 52 -11 65 -16z
m-533 0 c11 -17 0 -20 -21 -4 -17 13 -17 14 -2 15 9 0 20 -5 23 -11z m405 -14
c0 -24 -2 -25 -71 -25 -61 0 -70 2 -67 17 4 20 36 31 96 32 38 1 42 -1 42 -24z
m-410 -25 c0 -5 -9 -10 -21 -10 -11 0 -17 5 -14 10 3 6 13 10 21 10 8 0 14 -4
14 -10z m75 0 c-3 -5 -13 -10 -21 -10 -8 0 -12 5 -9 10 3 6 13 10 21 10 8 0
12 -4 9 -10z m35 -14 c0 -8 -4 -18 -10 -21 -5 -3 -10 3 -10 14 0 12 5 21 10
21 6 0 10 -6 10 -14z m50 -5 c0 -12 -20 -25 -27 -18 -7 7 6 27 18 27 5 0 9 -4
9 -9z m248 -56 c-2 -35 -6 -67 -9 -70 -4 -3 -29 0 -58 7 -43 10 -51 15 -48 30
3 11 0 18 -9 18 -14 0 -21 60 -7 73 3 4 35 7 71 7 l64 0 -4 -65z m151 28 c0
-40 -22 -103 -50 -144 l-16 -24 -40 27 -39 26 7 58 c4 33 8 67 8 77 1 14 11
17 66 17 l65 0 -1 -37z m-331 -64 c-2 -6 -8 -10 -13 -10 -5 0 -11 4 -13 10 -2
6 4 11 13 11 9 0 15 -5 13 -11z m52 -5 c0 -9 -5 -14 -12 -12 -18 6 -21 28 -4
28 9 0 16 -7 16 -16z m66 -35 c35 -9 44 -16 44 -33 0 -20 -53 -116 -65 -116
-2 0 -11 13 -20 30 -14 27 -22 130 -9 130 3 0 25 -5 50 -11z m-332 -87 c22
-24 59 -55 83 -69 46 -27 50 -32 31 -51 -26 -26 -123 -4 -169 39 -23 21 -29
36 -29 68 0 22 5 52 12 67 11 24 13 25 23 8 5 -10 28 -37 49 -62z m221 35 c-2
-12 -2 -16 1 -8 5 11 8 11 16 0 8 -11 9 -11 5 2 -3 9 -1 22 5 30 7 10 8 0 5
-33 -2 -26 -1 -45 4 -42 15 9 10 -13 -6 -26 -17 -14 -17 -15 -33 23 -15 35
-16 91 -2 82 6 -4 8 -16 5 -28z m216 2 c25 -17 28 -24 18 -36 -14 -16 -109
-67 -114 -61 -6 6 49 117 58 117 5 1 22 -8 38 -20z m-221 -70 c0 -6 -4 -7 -10
-4 -5 3 -10 11 -10 16 0 6 5 7 10 4 6 -3 10 -11 10 -16z m22 -44 c26 1 34 6
36 24 3 21 5 20 22 -11 16 -30 16 -34 1 -39 -9 -4 -46 -5 -83 -2 -57 3 -68 1
-68 -12 0 -8 -5 -15 -10 -15 -6 0 -3 14 7 31 10 17 22 40 28 50 9 18 10 17 22
-4 9 -18 20 -23 45 -22z m131 -118 c1 -14 5 -23 8 -21 4 2 9 -3 13 -11 3 -8 2
-16 -2 -16 -33 -6 -51 -5 -45 3 3 6 -3 7 -16 3 -17 -5 -21 -2 -21 15 0 16 5
20 15 16 8 -3 15 0 15 7 0 8 4 6 10 -3 7 -10 10 -11 10 -2 0 19 -28 26 -57 13
-20 -9 -24 -17 -20 -36 2 -14 0 -25 -4 -25 -5 0 -9 7 -9 15 0 8 -4 15 -9 15
-5 0 -7 9 -4 20 4 16 0 20 -21 20 -23 0 -26 -4 -26 -36 0 -21 -4 -33 -10 -29
-13 8 -13 75 0 77 6 0 16 1 23 2 6 1 14 4 17 7 3 3 23 13 45 21 39 16 41 16
63 -6 13 -13 25 -35 25 -49z m-218 33 c4 -6 -6 -25 -20 -42 -25 -30 -26 -33
-9 -40 13 -5 7 -6 -16 -4 -24 2 -34 8 -31 17 2 8 4 19 5 24 8 41 55 71 71 45z
m19 -49 c3 -5 -1 -11 -9 -15 -9 -3 -15 0 -15 9 0 16 16 20 24 6z"/>
<path d="M212 794 c-51 -51 -92 -118 -95 -154 -1 -19 -8 -30 -16 -30 -12 0
-12 -3 -3 -12 15 -15 22 -8 28 28 3 16 10 34 16 41 6 7 8 13 4 13 -7 0 15 29
73 92 53 59 48 76 -7 22z"/>
<path d="M760 746 c0 -2 7 -7 16 -10 8 -3 12 -2 9 4 -6 10 -25 14 -25 6z"/>
<path d="M777 697 c10 -17 22 -35 26 -38 5 -3 8 -10 7 -15 -1 -5 4 -10 10 -12
27 -9 -19 82 -46 92 -12 5 -12 0 3 -27z"/>
</g>
</svg>
